<svg xmlns="http://www.w3.org/2000/svg" xml:space="preserve" width="1200px" height="239px" style="shape-rendering:geometricPrecision; text-rendering:geometricPrecision; image-rendering:optimizeQuality; fill-rule:evenodd; clip-rule:evenodd" viewBox="0 0 1185 236" xmlns:xlink="http://www.w3.org/1999/xlink">
<style type="text/css">
.fil0 {fill:#151415}
.fil1 {fill:#2E80A2}
</style>
<path class="fil0" d="M483 172c-10,0 -13,1 -12,-10 4,-27 12,-21 41,-21 -6,36 -9,31 -30,31zm37 -60c-1,12 -31,7 -41,7 -33,0 -51,-4 -61,34 -12,45 6,41 47,41 15,0 31,3 37,-10l1 4c2,6 -1,1 2,6l53 0c-6,-29 28,-90 7,-105 -13,-9 -97,-5 -120,-5 -7,3 -10,17 -12,25 17,-3 26,-3 44,-3 18,0 42,-4 41,7z"/>
<path class="fil0" d="M794 129l-38 0c3,-18 3,-24 21,-24 27,0 23,0 17,24zm46 21c5,-4 6,-12 8,-23 10,-41 5,-44 -37,-44 -107,0 -96,-9 -116,67 -5,17 -11,38 10,42 18,4 99,2 121,1l10 -25c-8,1 -11,3 -20,4 -14,1 -59,1 -68,-2 -2,-7 -1,-13 3,-20l89 0z"/>
<path class="fil1" d="M299 64c2,-8 4,-17 7,-25 3,-11 6,-13 10,-21 -53,-2 -109,0 -162,0 -68,0 -94,-10 -115,47l6 0c79,1 175,1 254,0z"/>
<path class="fil1" d="M0 195c22,2 57,0 81,0 27,0 142,2 159,-3 18,-5 34,-23 37,-44l-260 0c-6,21 -7,30 -17,46z"/>
<polygon class="fil1" points="293,84 33,84 23,128 283,128 "/>
<path class="fil0" d="M655 194c-6,-30 30,-125 31,-150l-60 0c0,35 -15,81 -24,116 -5,19 -5,19 -14,33l66 0z"/>
<path class="fil1" d="M971 110c-3,4 -19,14 -24,18 -5,4 -20,16 -26,17 -2,6 -94,73 -103,91l56 -1c6,-10 54,-62 61,-65 3,-6 7,-9 12,-13 4,-4 7,-7 11,-11 5,-4 19,-19 24,-18 1,-6 -2,-2 10,-12 42,-33 89,-66 137,-89 15,-7 41,-23 55,-27 -13,2 -43,17 -57,23 -35,15 -75,37 -106,56 -9,6 -17,10 -25,15 -8,5 -16,12 -25,15z"/>
<path class="fil0" d="M935 169l11 23 76 2c-4,-6 -8,-8 -12,-16 -7,-12 -24,-42 -28,-50 -5,-1 -20,14 -24,18 -4,4 -7,7 -11,11 -5,4 -9,7 -12,13z"/>
<path class="fil0" d="M921 145c5,-1 20,-13 26,-17 5,-4 22,-14 24,-18 -2,-6 -3,-7 -7,-14 -5,-10 -2,-11 -6,-12l-72 0c7,7 30,48 35,61z"/>
</svg>